<svg width="57" height="100" viewBox="0 0 57 100" fill="none" xmlns="http://www.w3.org/2000/svg">
<g clip-path="url(#clip0_31_104)">
<path d="M8.44689 53.8209L4.0697 4.72681H52.1667L47.7847 53.8134L28.0889 59.2734L8.44689 53.8209Z" fill="#E44D26"/>
<path d="M28.1182 55.1L44.0335 50.6873L47.7781 8.74072H28.1182V55.1Z" fill="#F16529"/>
<path d="M28.1182 26.9491H20.1505L19.6001 20.783H28.1182V14.7621H13.0197L13.164 16.3773L14.6437 32.9704H28.1182V26.9491ZM28.1182 42.5866L28.0915 42.5941L21.386 40.7828L20.9577 35.9813H14.9127L15.7562 45.4352L28.0907 48.8591L28.1182 48.8516V42.5866Z" fill="#EBEBEB"/>
<path d="M28.0972 26.9491V32.9704H35.5115L34.8128 40.7793L28.0972 42.5919V48.8565L40.4412 45.4352L40.5318 44.418L41.9467 28.5661L42.0932 26.9491H40.471H28.0972ZM28.0972 14.7621V20.783H42.6414L42.7622 19.4302L43.0369 16.3773L43.1809 14.7621H28.0972Z" fill="white"/>
<path d="M3.70339 89V75.9091H5.28862V81.7386H12.2687V75.9091H13.854V89H12.2687V83.1449H5.28862V89H3.70339ZM16.3117 77.3153V75.9091H26.1299V77.3153H22.0134V89H20.4282V77.3153H16.3117ZM28.5764 75.9091H30.4685L34.9173 86.7756H35.0708L39.5196 75.9091H41.4117V89H39.9287V79.054H39.8009L35.71 89H34.2781L30.1872 79.054H30.0594V89H28.5764V75.9091ZM44.5901 89V75.9091H46.1753V87.5938H52.2606V89H44.5901Z" fill="#4B5563"/>
</g>
<defs>
<clipPath id="clip0_31_104">
<rect width="56" height="100" fill="white" transform="translate(0.118164)"/>
</clipPath>
</defs>
</svg>
